/* XPM */
static char * ball_xpm[] = {
"10 10 2 1",
" 	c #FFFFFFFFFFFF",
".	c #000000000000",
" ........ ",
"..........",
"... ......",
".. .......",
"..........",
"..........",
"..........",
"..........",
"..........",
" ........ "};
