/* XPM */
static char * ball_xpm[] = {
"10 10 3 1",
" 	c #FF00FF",
".	c #000000",
"+	c #FFFFFF",
" ........ ",
"..........",
"...+......",
"..+.......",
"..........",
"..........",
"..........",
"..........",
"..........",
" ........ "};
