/* XPM */
static char * leftbumper_xpm[] = {
"4 208 3 1",
" 	c None",
".	c #000000",
"+	c #FFFFFF",
"....",
"+...",
"....",
"+...",
"....",
"+...",
"....",
"+...",
"....",
"+...",
"....",
"+...",
"....",
"+...",
"....",
"+...",
"....",
"+...",
"....",
"+...",
"....",
"+...",
"....",
"+...",
"....",
"+...",
"....",
"+...",
"....",
"+...",
"....",
"+...",
"....",
"+...",
"....",
"+...",
"....",
"+...",
"....",
"+...",
"....",
"+...",
"....",
"+...",
"....",
"+...",
"....",
"+...",
"....",
"+...",
"....",
"+...",
"....",
"+...",
"....",
"+...",
"....",
"+...",
"....",
"+...",
"....",
"+...",
"....",
"+...",
"....",
"+...",
"....",
"+...",
"....",
"+...",
"....",
"+...",
"....",
"+...",
"....",
"+...",
"....",
"+...",
"....",
"+...",
"....",
"+...",
"....",
"+...",
"....",
"+...",
"....",
"+...",
"....",
"+...",
"....",
"+...",
"....",
"+...",
"....",
"+...",
"....",
"+...",
"....",
"+...",
"....",
"+...",
"....",
"+...",
"....",
"+...",
"....",
"+...",
"....",
"+...",
"....",
"+...",
"....",
"+...",
"....",
"+...",
"....",
"+...",
"....",
"+...",
"....",
"+...",
"....",
"+...",
"....",
"+...",
"....",
"+...",
"....",
"+...",
"....",
"+...",
"....",
"+...",
"....",
"+...",
"....",
"+...",
"....",
"+...",
"....",
"+...",
"....",
"+...",
"....",
"+...",
"....",
"+...",
"....",
"+...",
"....",
"+...",
"....",
"+...",
"....",
"+...",
"....",
"+...",
"....",
"+...",
"....",
"+...",
"....",
"+...",
"....",
"+...",
"....",
"+...",
"....",
"+...",
"....",
"+...",
"....",
"+...",
"....",
"+...",
"....",
"+...",
"....",
"+...",
"....",
"+...",
"....",
"+...",
"....",
"+...",
"....",
"+...",
"....",
"+...",
"....",
"+...",
"....",
"+...",
"....",
"+...",
"....",
"+...",
"....",
"+...",
"....",
"+...",
"....",
"+...",
"....",
"+...",
"....",
"+..."};
