/* XPM */
static char * player2_xpm[] = {
"39 8 3 1",
" 	c None",
".	c #000000",
"+	c #FFFFFF",
".......................................",
".......................................",
".......................................",
".+.+.+.+.+.+.+.+.+.+.+.+.+.+.+.+.+.+.+.",
"..+.+.+.+.+.+.+.+.+.+.+.+.+.+.+.+.+.+..",
".+.+.+.+.+.+.+.+.+.+.+.+.+.+.+.+.+.+.+.",
"+.+.+.+.+.+.+.+.+.+.+.+.+.+.+.+.+.+.+.+",
"++.+.+.+.+.+.+.+.+.+.+.+.+.+.+.+.+.+.++"};
