/* XPM */
static char * title_xpm[] = {
"171 39 2 1",
" 	c #000000",
".	c #FF00FF",
"       ...........................................         ................................................................................................................",
"        ..........................................         ................................................................................................................",
"  ....   ........................................   .......................................................................................................................",
"  .....  ........................................  ........................................................................................................................",
"  .....  ....    ......  .    .......     .  ....  ..........   ....   ....................................................................................................",
"  .....  ..        ....        .....         ....  ...........  ...   .....................................................................................................",
"  ....   ..  ....  ....   ...   ....  ....   ....         ....   .   ......................................................................................................",
"        ..  ......  ...  .....  ...  ......  ...         ......     .......................................................................................................",
"       ...  ......  ...  .....  ...  ......  ...  ..............   ........................................................................................................",
"  ........  ......  ...  .....  ...  ......  ...  .............   .........................................................................................................",
"  ........  ......  ...  .....  ...  ......  ...  ............     ........................................................................................................",
"  ........  ......  ...  .....  ...  ......  ...  ...........   .  ........................................................................................................",
"  .........  ....  ....  .....  ....  ....   ..   ..........   ..   .......................................................................................................",
"  .........        ....  .....  ....         ..          ..   ....  .......................................................................................................",
"  ...........    ......  .....  .....     .  ..         ..   .....   ......................................................................................................",
"...........................................  ..............................................................................................................................",
".................................... .....  ...............................................................................................................................",
"....................................        ...............................................................................................................................",
".....................................     .................................................................................................................................",
"...........................................................................................................................................................................",
"...........................................................................................................................................................................",
"...........................................................................................................................................................................",
"...........................................................................................................................................................................",
"...........................................................................................................................................................................",
"..       ..................        ........ ............................................................. .......  .......  ... ............ ............................. ",
".. ...... ................. .......... .... ............................................................. .......  .......  ... ............ ............................. ",
".. ...... ................. .......... .... ............................................................. ....... . ..... . ................ ............................. ",
". ....... .. ...... ...... .........     . ..    ....     .... .     .........     .... .     .....    . ....... .. .... . ... .....    ... ..    ....     ......    .... .",
". ...... ... ..... ....... .......... ....   .... .. ..... ...  ..... ....... ..... ...  ..... ... ....  ....... .. .... . ... .... .... ..   .... .. ..... .... ...  ... .",
".       .... ..... .......        ... ....  ..... ........ ... ...... ............. ... ...... .. ...... ....... .. ... .. ... ... ........  ..... ........ ... ..... ... .",
". .....  .... ... ........ .......... .... ...... ...      ... ...... ........      ... ...... . ....... ....... .. ... .. ... .. ......... ...... ...      ..  ..... ... .",
". ...... .... ... ........ ......... ..... ...... .. ..... .. ....... ....... ..... .. ....... . ....... ....... .. .. ... .. ... ......... ...... .. ..... ..        ... .",
". ...... .... .. ......... ......... ..... ...... . .....  .. ....... ...... .....  .. ....... . ......  ....... ...  .... .. ... ......... ...... . .....  .. .......... .",
" ....... .... . ......... .......... .... ...... .. .....  .. ...... ....... .....  .. ...... .. ...... ....... ....  ... ... ... ........ ...... .. .....  .. ......... ..",
" ...... ......  ......... .......... .... ...... .. ....  ... ...... ....... ....  ... ...... ..  ...   ....... ......... ... ...  ... ... ...... .. ....  ...  .... ... ..",
"       ....... ..........        ....   . ...... ...    . ... ...... ........    . ... ...... ...     . ....... ......... ... ....     ... ...... ...    . ....     .... ..",
".............. ............................................................................................................................................................",
"............. .............................................................................................................................................................",
"..........   .............................................................................................................................................................."};
