/* XPM */
static char *dot[] = {
/* columns rows colors chars-per-pixel */
"8 8 2 1",
"  c #000000",
". c #FFFFFF",
/* pixels */
"........",
"........",
"...  ...",
"..    ..",
"..    ..",
"...  ...",
"........",
"........"
};
