/* XPM */
static char *ambulance[] = {
/* columns rows colors chars-per-pixel */
"24 41 2 1",
"  c #000000",
". c #FFFFFF",
/* pixels */
"                        ",
"                        ",
"                        ",
"                        ",
"                        ",
"             ...        ",
"             ...        ",
"             ...        ",
"             ...        ",
"             ...        ",
"        .............   ",
"        .............   ",
"        .............   ",
"             ...        ",
"             ...        ",
"             ...        ",
"             ...        ",
"             ...        ",
"                        ",
"                        ",
"                        ",
"                        ",
"               ....     ",
"            ...    ...  ",
"           ..  ....  .. ",
"             ........   ",
"        .. ............ ",
"       .. ..............",
"       . ...............",
"       . .......  ......",
"        ....... .. .....",
"..... . ...... .... ....",
"..... . ...... .... ....",
"....... ....... .. .....",
"........ .......  ......",
"........ ...............",
"......... ..............",
".......... ............ ",
"..........   ........   ",
".............  ....  ...",
"...............    ....."
};
