/* XPM */
static char *baby___[] = {
/* columns rows colors chars-per-pixel */
"16 16 2 1",
"  c #000000",
". c #FFFFFF",
/* pixels */
"................",
".....   .   ....",
"...    . .    ..",
"... ... . ... ..",
"...... . . .....",
".......   ......",
"......     .....",
"...  .     .  ..",
".. .         . .",
".....       ....",
".......   ......",
"....... . ......",
"......     .....",
"...... . . .....",
".......   ......",
"................"
};
