/* XPM */
static char *building[] = {
/* columns rows colors chars-per-pixel */
"21 180 2 1",
"  c #000000",
". c #FFFFFF",
/* pixels */
"                     ",
". . . . . . . . . .  ",
" . . . . . . . . . . ",
". . . . . . . . . .  ",
" . . . . . . . . . . ",
". . . . . . . . . .  ",
" . . . . . . . . . . ",
". . . . . . . . . .  ",
" . . . . . . . . . . ",
". . . . . . . . . .  ",
"                   . ",
"..................   ",
".................. . ",
"..................   ",
".................. . ",
"..................   ",
".................. . ",
"..................   ",
".................. . ",
"..................   ",
".................. . ",
"..................   ",
".................. . ",
"..................   ",
".................. . ",
"..................   ",
".................. . ",
"..................   ",
"                   . ",
". . . . . . . . . .  ",
" . . . . . . . . . . ",
". . . . . . . . . .  ",
" . . . . . . . . . . ",
". . . . . . . . . .  ",
" . . . . . . . . . . ",
". . . . . . . . . .  ",
" . . . . . . . . . . ",
". . . . . . . . . .  ",
" . . . . . . . . . . ",
". . . . . . . . . .  ",
"                   . ",
"..................   ",
".................. . ",
"..................   ",
".................. . ",
"..................   ",
".................. . ",
"..................   ",
".................. . ",
"..................   ",
".................. . ",
"..................   ",
".................. . ",
"..................   ",
".................. . ",
"..................   ",
".................. . ",
"..................   ",
"                   . ",
". . . . . . . . . .  ",
" . . . . . . . . . . ",
". . . . . . . . . .  ",
" . . . . . . . . . . ",
". . . . . . . . . .  ",
" . . . . . . . . . . ",
". . . . . . . . . .  ",
" . . . . . . . . . . ",
". . . . . . . . . .  ",
" . . . . . . . . . . ",
". . . . . . . . . .  ",
"                   . ",
"..................   ",
".................. . ",
"..................   ",
".................. . ",
"..................   ",
".................. . ",
"..................   ",
".................. . ",
"..................   ",
".................. . ",
"..................   ",
".................. . ",
"..................   ",
".................. . ",
"..................   ",
".................. . ",
"..................   ",
"                   . ",
". . . . . . . . . .  ",
" . . . . . . . . . . ",
". . . . . . . . . .  ",
" . . . . . . . . . . ",
". . . . . . . . . .  ",
" . . . . . . . . . . ",
". . . . . . . . . .  ",
" . . . . . . . . . . ",
". . . . . . . . . .  ",
" . . . . . . . . . . ",
". . . . . . . . . .  ",
"                   . ",
"..................   ",
".................. . ",
"..................   ",
".................. . ",
"..................   ",
".................. . ",
"..................   ",
".................. . ",
"..................   ",
".................. . ",
"..................   ",
".................. . ",
"..................   ",
".................. . ",
"..................   ",
".................. . ",
"..................   ",
"                   . ",
". . . . . . . . . .  ",
" . . . . . . . . . . ",
". . . . . . . . . .  ",
" . . . . . . . . . . ",
". . . . . . . . . .  ",
" . . . . . . . . . . ",
". . . . . . . . . .  ",
" . . . . . . . . . . ",
". . . . . . . . . .  ",
" . . . . . . . . . . ",
". . . . . . . . . .  ",
"                   . ",
"..................   ",
".................. . ",
"..................   ",
".................. . ",
"..................   ",
".................. . ",
"..................   ",
".................. . ",
"..................   ",
".................. . ",
"..................   ",
".................. . ",
"..................   ",
".................. . ",
"..................   ",
".................. . ",
"..................   ",
"                   . ",
". . . . . . . . . .  ",
" . . . . . . . . . . ",
". . . . . . . . . .  ",
" . . . . . . . . . . ",
". . . . . . . . . .  ",
" . . . . . . . . . . ",
". . . . . . . . . .  ",
" . . . . . . . . . . ",
". . . . . . . . . .  ",
" . . . . . . . . . . ",
". . . . . . . . . .  ",
" . . . . . . . . . . ",
". . . . . . . . . .  ",
" . . . . . . . . . . ",
". . . . . . . . . .  ",
" . . . . . . . . . . ",
". . . . . . . . . .  ",
" . . . . . . . . . . ",
". . . . . . . . . .  ",
" . . . . . . . . . . ",
". . . . . . . . . .  ",
" . . . . . . . . . . ",
". . . . . . . . . .  ",
" . . . . . . . . . . ",
". . . . . . . . . .  ",
" . . . . . . . . . . ",
". . . . . . . . . .  ",
" . . . . . . . . . . ",
"                     ",
"                     ",
"                     "
};
