/* XPM */
static char *gameover[] = {
/* columns rows colors chars-per-pixel */
"107 14 2 1",
"  c #000000",
". c #FFFFFF",
/* pixels */
".....     . .......................................................      ..................................",
"...   ....   .....................................................  ....  .................................",
"..  .......  ...................................................   ......  ................................",
".   ........ ...................................................  ........  ...............................",
".  ......... .....    .  ...   .    ..    .......     .........  .........  .   ....  ......     ..   .    ",
"   .............   ...   ...    ...   ...  ....  ....  .......   .........  ..  ...   ....  ....  ..   .  .",
"  .............   .....  ...  .....  ....  ...  .....  .......  ..........  ..  ....  ...  .....  ..  .....",
"  .......     .  ......  ...  ..... .....  ..  .....   .......  ..........  ..  ..... ..  .....   ..  .....",
"  ........   .  .......  ...  ....  .....  .  ....   .........  .........   ..  ..... .  ....   ....  .....",
"  ........  ..  ......  ....  ....  ....  ..      ............  .........  ..  ...... .      ....... ......",
"  ........  ..  ......  ....  ....  ....  ..  ................  ........  ...  ..... ..  ..........  ......",
".  ......   ..  .....   .... .....  ....  ..  .................  ......   ...  ..... ..  ..........  ......",
"..  ....    ...  ... .  ..   ..... .....  ...  .....  ..........  ....  .....  ...  ....  .....  ..  ......",
"...     ..  ....    ...   .  ....  ......   ..      .............      .......    .......      ....  ......"
};
