/* XPM */
static char *player[] = {
/* columns rows colors chars-per-pixel */
"67 21 2 1",
"  c #000000",
". c #FFFFFF",
/* pixels */
"..   .    ................................................   .   ..",
". . . . . ................................................. . . . .",
"   . . .   ..............................................  . . .   ",
"...     ................................................... .    ..",
"...        ..............................................        ..",
"....     ..................................................     ...",
".....   ....................................................   ....",
"....     ..................................................     ...",
"...        ..............................................        ..",
"...          ..........................................          ..",
"...          . ....................................... .         ..",
"....       .  . .                                   . . .       ...",
"....       ...   ..                              ..  ....       ...",
"...       ................................................       ..",
".... . . ................................................. . . . ..",
"... . . . ............................................... . . . ...",
".... .   . ...............................................   .  ...",
"..... . . . ............................................. . . . ...",
".... . .   .............................................   ... . ..",
"... . ... . ........................................... . ..... . .",
"..   .....   .........................................   . ...   . "
};
