/* XPM */
static char *title[] = {
/* columns rows colors chars-per-pixel */
"110 32 2 1",
"  c #000000",
". c #FFFFFF",
/* pixels */
"         ....................................................................  ...............................",
"..  ....   ..................................................................  ...............................",
"..  ...... ...................................................................................................",
"..  ......  ..................................................................................................",
"..  .....   ......     ......    ....    .....    ..   ...........    .....    .....    ..   ...........   .  ",
"..  .....  ......  ....  ......  ......  .......    ...  .......  .... ......  .......    ...  ........  .. ..",
"..       ........  .....  .....  ......  .......  .....   .....   ....  .....  .......  .....   ......  ...  .",
"..  ....   .....  ......  .....  ......  .......  ......  .....  .....  .....  .......  ......  ......  ...  .",
"..  ...... .....  ......  .....  ......  .......  ......  .....  ............  .......  ......  ......  ...  .",
"..  ......  ....  ......  .....  ......  .......  ......  .....  ............  .......  ......  ....... ..  ..",
"..  ......  ....  ......  .....  ......  .......  ......  .....  ............  .......  ......  ...... .   ...",
"..  .....   ....  .....  ....... ......  .......  ......  ...... ...... .....  .......  ......  ...... .......",
"..  .....  ......  ....  .......  ...    .......  ......  ......  ...  ......  .......  ......  ...... .......",
"         ..........     .........    ..   ....      ..      .....    ......      ...      ..      ....      ..",
".....................................................................................................         ",
"..................................................................................................... ......  ",
".....................................................................................................  ...... ",
".......................................................................................................      .",
"..................         .....................    .............  ...........................................",
"....................  ....   .....................  .............  ...........................................",
"....................  ...... .....................  ..........................................................",
"....................  ......  ....................  ..........................................................",
"....................  .....   .......    .........  ..    .....    ........    ........    ...................",
"....................  .....  ......  .... ........    ...  ......  ......  ...  .....  ....  .................",
"....................       ........  ....  .......  ...... ......  .....   .... .....  ....  .................",
"....................  ....   ...........   .......  ......  .....  .....  .....  ....    .....................",
"....................  ...... ........   .  .......  ......  .....  .....         .....      ..................",
"....................  ......  ......  ...  .......  ......  .....  .....  ...............    .................",
"....................  ......  .....  ....  .......  ......  .....  .....  .................  .................",
"....................  .....   .....  ....  .......   ....   .....  ...... ...... ....  ..... .................",
"....................  .....  ......  ..    .......   ....  ......  ......  ...  .....  ....  .................",
"..................         ..........  ...   .....  .    ......      .....    ........     ..................."
};
