/* XPM */
static char * splash_xpm[] = {
"96 26 2 1",
" 	c #FFFFFF",
".	c #000000",
"                                                                 ......      ......             ",
"                                                                 ......      ......             ",
"                                                                .......      ......             ",
"                                                                ......      ......              ",
"                                                                ......      ......              ",
"                                                                ......      ......              ",
"                                                                ......      ......              ",
"  .....       .....      ......    ......   ....       .....   .......      ......     .......  ",
"  .....      ......      .....     ...... ......     ......... ......      ......     .......   ",
"  .....      ......     ......    ..............    .................      ......    .......    ",
"  .....     .......     .....     .............    ..................      ......   .......     ",
"  .....     .......    ......     .............   .......    ........      ......  .......      ",
"  .....     .......    ......     ........    .   ......      .......      .....  ......        ",
"  .....    ........    .....      .......        ......       ......      ...... ......         ",
"   .....   ........   ......     .......         ......       ......      ............          ",
"   .....  .... ....   .....      .......        ......        ......      ...........           ",
"   .....  ....  ...  ......      ......         ......        ......      ...........           ",
"   ..... ....   ...  .....       ......         ......       .......      ............          ",
"   ..... ....   ... ......       ......         ......       ......      .............          ",
"   .........    ... .....       .......         ......      .......      ......  ......         ",
"   .........    .........       ......          ......      .......      ......   ......        ",
"   .........    ........        ......          .......    ........      ......   .......       ",
"   ........     ........        ......           ..................      ......    ......       ",
"   ........     ........        ......           .................      .......     ......      ",
"   .......      .......        ......             ......... ......      ......       ......     ",
"   .......      .......        ......               .....   ......      ......       .......    "};
