/* XPM */
static char *base[] = {
/* columns rows colors chars-per-pixel */
"17 15 2 1",
"  c #000000",
". c #FF00FF",
/* pixels */
"...           ...",
"..             ..",
".               .",
"                 ",
"                 ",
"                 ",
"                 ",
"                 ",
"                 ",
"                 ",
"                 ",
"                 ",
"                 ",
"      .....      ",
"     .......     "
};
