/* XPM */
static char *explode[] = {
/* columns rows colors chars-per-pixel */
"16 10 3 1",
"  c #000000",
". c #FF00FF",
"X c #FFFFFF",
/* pixels */
"....X... .. ....",
"  .X X. ..   . .",
".  .X      X.. .",
"...         X ..",
"             X..",
".X            X.",
"X X          X X",
"   XX X X XX X X",
" X X X XX  XX  X",
"..X. XX . X..XXX"
};
