/* XPM */
static char * gameover_xpm[] = {
"110 18 3 1",
" 	c #FF00FF",
".	c #FFFFFF",
"+	c #000000",
"        ....                                                         .....                                    ",
"     ...++++..                                                     ..+++++..                                  ",
"    .+++++++++.                                                   .+++++++++.                                 ",
"   .+++++++++++.                                                 .+++++++++++.                                ",
"  .++++.....+++.    .....    ... ....  ....      .....          .++++.....+++.  ...    ...   .....    ...  .. ",
"  .+++.    .+++.  ..+++++.  .+++.++++..++++.    .+++++.         .+++......+++. .+++.  .+++. .+++++.  .+++..++.",
" .+++.      ...  .++++++++. .+++++++++++++++.  .+++++++.       .+++........+++..+++. .+++...+++++++. .+++.++. ",
" .+++.   ......  .+++..++++..++++..++++..+++. .+++..++++.      .+++........+++..+++. .+++..+++..++++..++++++. ",
".+++.   .++++++..+++....++. .+++. .+++. .+++..+++....+++.     .+++........+++. .+++..+++..+++....+++..+++...  ",
".+++.   .++++++.......++++. .++.  .+++. .+++..+++....+++.     .+++........+++. .+++..+++..+++....+++..+++.    ",
".+++.   .+++++....++++++++..+++.  .++.  .+++..++++++++++.     .+++........+++. .+++.+++...++++++++++.+++.     ",
".+++.    ..+++...+++...+++..+++. .+++.  .++..+++........      .+++.......+++.  .+++.+++..+++.........+++.     ",
".++++.   ..+++..+++....+++..+++. .+++. .+++..+++.......       .++++......+++.   .+++++. .+++.........+++.     ",
" .++++...+++++..+++...+++. .+++. .+++. .+++..+++....+++.       .++++...++++.    .++++.  .+++....+++..+++.     ",
" .+++++++++.++..+++++++++. .++.  .+++. .+++. .++++++++.        .++++++++++.     .++++.   .++++++++...++.      ",
"  .+++++++.++.  .++++++++..+++.  .++.  .+++.  .++++++.          .++++++++.      .+++.     .++++++. .+++.      ",
"   ....... ..    ........+....    ..    ...    ......            ........        ...       ......   ...       ",
"                         .                                                                                    "};
