/* XPM */
static char *invaders__[] = {
/* columns rows colors chars-per-pixel */
"16 34 3 1",
"  c #000000",
". c #FF00FF",
"X c #FFFFFF",
/* pixels */
".......XXX......",
"......X   X.....",
".....X     X....",
"....X       X...",
"...X         X..",
"..X  XX   XX  X.",
"...X         X..",
"..X XXXXXXXXX X.",
"...X X.....X X..",
"....X.......X...",
"................",
"................",
"....X......X....",
".XXX X....X XXX.",
"X  XX XXXX XX  X",
"X XX        XX X",
"X X  XX  XX  X X",
"X              X",
".XX          XX.",
"...X XXXXXX X...",
"..X X......X X..",
"...X........X...",
"................",
"................",
"....XXXXXXXX....",
"..XX        XX..",
".X            X.",
"X              X",
"X   XX    XX   X",
".X            X.",
"..XX  XXXX  XX..",
"..X  XX  XX  X..",
".X XX..XX..XX X.",
"..X..........X.."
};
