/* XPM */
static char *invaders__[] = {
/* columns rows colors chars-per-pixel */
"16 34 3 1",
"  c #000000",
". c #FF00FF",
"X c #FFFFFF",
/* pixels */
".......XXX......",
"......X   X.....",
".....X     X....",
"....X       X...",
"...X         X..",
"..X  XX   XX  X.",
"...X         X..",
"....X X X X X...",
"...X X X.X X X..",
"....X.X...X.X...",
"................",
"................",
"....X......X....",
"...X X....X X...",
"....X XXXX X....",
"...X        X...",
"..X  XX  XX  X..",
".X            X.",
"X XX        XX X",
"X XXXXXXXXXXXX X",
".X XX  XX  XX X.",
"..X..XX..XX..X..",
"................",
"................",
"....XXXXXXXX....",
"..XX        XX..",
".X            X.",
"X              X",
"X   XX    XX   X",
".X            X.",
"..XX  XXXX  XX..",
"..X  XX  XX  X..",
"...X  XXXX  X...",
"....XX....XX...."
};
