/* XPM */
static char *player[] = {
/* columns rows colors chars-per-pixel */
"16 9 2 1",
"  c #000000",
". c #FFFFFF",
/* pixels */
".......  .......",
"......    ......",
".....      .....",
".....      .....",
"..            ..",
".              .",
".              .",
".              .",
"..            .."
};
