/* XPM */
static char *shot[] = {
/* columns rows colors chars-per-pixel */
"4 6 2 1",
"  c #000000",
". c #FFFFFF",
/* pixels */
". ..",
".. .",
". ..",
".. .",
". ..",
".. ."
};
