/* XPM */
static char *special[] = {
/* columns rows colors chars-per-pixel */
"20 12 3 1",
"  c #000000",
". c #FF00FF",
"X c #FFFFFF",
/* pixels */
"........XXXX........",
"......XX    XX......",
".....X        X.....",
"....X          X....",
"...X            X...",
"..X  X  X  X  X  X..",
".X   X  X  X  X   X.",
"X                  X",
".XX    X    X    XX.",
"..X   X.X  X.X   X..",
"...X X...XX...X X...",
"....X..........X...."
};
